<svg width="344" height="145" viewBox="0 0 344 145" fill="none" xmlns="http://www.w3.org/2000/svg">
<g style="mix-blend-mode:luminosity" clip-path="url(#clip0_1830_21022)">
<path d="M61.8227 32.2384H24V70.061H61.8227V32.2384Z" fill="#E4171C"/>
<path d="M35.8039 62.1489C36.2196 62.7157 36.7334 63.222 37.338 63.6754C37.9426 64.1288 38.6454 64.4991 39.4464 64.7938C40.2474 65.0885 41.1467 65.2246 42.1367 65.2246C43.1266 65.2246 44.0713 65.0508 44.895 64.7031C45.7111 64.3555 46.4064 63.8794 46.9807 63.29C47.555 62.7005 47.9933 61.9977 48.3032 61.1967C48.613 60.3957 48.7641 59.5342 48.7641 58.6198C48.7641 57.2217 48.4014 56.1184 47.6759 55.2947C46.9505 54.471 46.0436 53.7909 44.963 53.2468C43.8823 52.7027 42.711 52.1963 41.4641 51.7429C40.2172 51.2895 39.0459 50.7152 37.9652 50.035C36.8846 49.3549 35.9777 48.4783 35.2523 47.4128C34.5268 46.3472 34.1641 44.9265 34.1641 43.128C34.1641 41.8508 34.3983 40.6946 34.8593 39.6442C35.3203 38.5938 35.9929 37.6945 36.877 36.9313C37.7612 36.168 38.8192 35.5786 40.051 35.1554C41.2903 34.7322 42.6808 34.513 44.2224 34.513C45.764 34.513 46.9883 34.6868 48.0689 35.042C49.1496 35.3896 50.1546 35.9337 51.0841 36.6592C50.8045 37.1731 50.5703 37.7247 50.3889 38.2991C50.2075 38.8734 50.0186 39.6064 49.8297 40.483H49.2705C49.1193 40.0598 48.9077 39.5913 48.6432 39.0926C48.3787 38.5938 48.0236 38.1253 47.5777 37.7021C47.1318 37.2789 46.5953 36.9237 45.9756 36.629C45.3559 36.3418 44.6154 36.1982 43.7539 36.1982C42.8924 36.1982 42.0913 36.3343 41.3659 36.6063C40.6404 36.8784 40.0056 37.2638 39.4615 37.7701C38.9174 38.2688 38.5018 38.8734 38.207 39.5686C37.9123 40.2639 37.7687 41.0271 37.7687 41.8433C37.7687 43.2716 38.1315 44.3975 38.8569 45.2137C39.5824 46.0374 40.4893 46.7251 41.5699 47.2843C42.6505 47.8435 43.8219 48.3498 45.0688 48.7881C46.3232 49.2265 47.487 49.7706 48.5677 50.4053C49.6483 51.0477 50.5551 51.8638 51.2806 52.8614C52.0061 53.8664 52.3688 55.204 52.3688 56.8741C52.3688 58.2721 52.1119 59.5946 51.6056 60.834C51.0992 62.0809 50.3511 63.1615 49.3838 64.091C48.409 65.0205 47.2225 65.7309 45.8094 66.2296C44.4038 66.7284 42.8017 66.9778 41.0107 66.9778C39.0912 66.9778 37.542 66.7284 36.348 66.2296C35.1616 65.7309 34.1565 65.1566 33.3555 64.5218C33.6351 63.8265 33.8316 63.1917 33.9374 62.6325C34.0432 62.0733 34.149 61.3478 34.2396 60.4712H34.7989C35.0482 61.0153 35.3807 61.5745 35.7964 62.1338L35.8039 62.1489Z" fill="white"/>
<path d="M88.6273 39.0321C88.0454 38.488 87.3955 38.0044 86.6851 37.5963C85.9672 37.1882 85.1813 36.8481 84.3122 36.5912C83.4432 36.3343 82.5137 36.2058 81.5313 36.2058C79.9216 36.2058 78.4254 36.493 77.0349 37.0673C75.6444 37.6416 74.4428 38.5333 73.4151 39.7349C72.3873 40.9365 71.5863 42.4554 71.0044 44.2918C70.4225 46.1281 70.1278 48.3121 70.1278 50.8285C70.1278 53.0427 70.3847 55.0529 70.9062 56.8439C71.4276 58.6349 72.1833 60.1463 73.1808 61.3781C74.1783 62.6099 75.395 63.5545 76.8384 64.2271C78.2742 64.8921 79.9065 65.2321 81.7202 65.2321C82.2643 65.2321 82.8386 65.2019 83.4356 65.1415C84.0326 65.081 84.607 64.9903 85.1662 64.8694C85.7254 64.7485 86.2393 64.5973 86.7229 64.416C87.199 64.2346 87.6146 64.023 87.9472 63.7812C87.9698 62.8668 87.9925 61.96 88.0076 61.0456C88.0227 60.1312 88.0303 59.2092 88.0303 58.2646C88.0303 57.1991 88.0076 56.1411 87.9698 55.0756C87.932 54.01 87.8867 52.9974 87.8338 52.0225C88.4837 52.1737 89.1034 52.2493 89.7004 52.2493C89.9875 52.2493 90.2671 52.2341 90.5543 52.2039C90.8415 52.1737 91.1135 52.1132 91.3705 52.0225C91.3176 52.7178 91.2798 53.8211 91.2571 55.3249C91.2344 56.8288 91.2193 58.8087 91.2193 61.2723C91.2193 61.8768 91.2193 62.4965 91.242 63.1162C91.2571 63.7359 91.2647 64.3555 91.2647 64.9601C90.7206 65.2019 90.0404 65.4513 89.2243 65.7082C88.4081 65.9652 87.5391 66.1768 86.6171 66.343C85.6952 66.5093 84.7732 66.6604 83.8513 66.804C82.9293 66.94 82.0981 67.008 81.3424 67.008C79.0299 67.008 76.9518 66.6831 75.1003 66.0332C73.2413 65.3833 71.6694 64.3706 70.3696 63.0028C69.0698 61.635 68.0723 59.9347 67.3695 57.9019C66.6667 55.869 66.3191 53.5113 66.3191 50.8437C66.3191 48.176 66.6818 45.9619 67.4073 43.9441C68.1328 41.9264 69.1605 40.2186 70.483 38.8205C71.8055 37.4225 73.4075 36.3569 75.2892 35.6315C77.1709 34.906 79.2491 34.5357 81.5313 34.5357C82.8538 34.5357 84.0251 34.6188 85.0528 34.7851C86.0806 34.9513 86.9874 35.1705 87.7733 35.4425C88.5668 35.7146 89.2545 36.0093 89.8591 36.304C90.4561 36.6063 90.9851 36.901 91.4536 37.1731C91.242 37.5963 91.0606 38.1479 90.8868 38.813C90.713 39.478 90.6072 40.1052 90.5543 40.6795H90.0858C89.7004 40.1354 89.2092 39.5838 88.6273 39.0397V39.0321Z" fill="#525A5C"/>
<path d="M120.435 65.3379C119.928 65.6251 119.316 65.882 118.606 66.1088C117.895 66.3355 117.094 66.5395 116.21 66.7209C115.326 66.9022 114.404 66.9929 113.444 66.9929C111.396 66.9929 109.5 66.6529 107.762 65.9652C106.023 65.285 104.527 64.2422 103.265 62.8441C102.011 61.4461 101.021 59.7382 100.31 57.7205C99.6 55.7028 99.2373 53.4055 99.2373 50.821C99.2373 48.2365 99.5925 45.9392 100.31 43.9215C101.028 41.9038 102.026 40.1959 103.311 38.7978C104.595 37.3998 106.129 36.3343 107.92 35.6088C109.711 34.8833 111.684 34.513 113.837 34.513C115.545 34.513 117.11 34.7171 118.523 35.1251C119.936 35.5332 121.19 36.032 122.279 36.6063C122.067 37.0295 121.901 37.6114 121.772 38.3369C121.644 39.0623 121.538 39.6744 121.462 40.1581L121.228 40.2488C120.971 39.886 120.608 39.478 120.14 39.017C119.671 38.5636 119.127 38.1253 118.508 37.6945C117.888 37.2713 117.185 36.9162 116.407 36.6214C115.628 36.3343 114.774 36.1907 113.837 36.1907C112.303 36.1907 110.883 36.4778 109.575 37.0522C108.268 37.6265 107.127 38.5182 106.152 39.7198C105.177 40.9213 104.421 42.4403 103.877 44.2766C103.333 46.113 103.061 48.297 103.061 50.8134C103.061 53.3299 103.333 55.5139 103.877 57.3502C104.421 59.1866 105.177 60.7055 106.152 61.9071C107.127 63.1086 108.268 63.9928 109.575 64.5747C110.883 65.149 112.303 65.4362 113.837 65.4362C114.774 65.4362 115.628 65.3002 116.422 65.0281C117.215 64.7561 117.941 64.4311 118.598 64.0533C119.263 63.6754 119.86 63.2673 120.389 62.8215C120.918 62.3832 121.364 61.9902 121.734 61.6577L121.893 61.8391L121.545 64.5294C121.311 64.7712 120.941 65.0357 120.435 65.3228V65.3379Z" fill="#525A5C"/>
<path d="M34.814 102.148C35.2296 102.707 35.7435 103.221 36.348 103.674C36.9526 104.128 37.6554 104.498 38.4564 104.793C39.2575 105.08 40.1567 105.224 41.1467 105.224C42.1367 105.224 43.0888 105.05 43.905 104.702C44.7211 104.355 45.4164 103.878 45.9907 103.289C46.565 102.7 47.0034 101.997 47.3132 101.196C47.623 100.387 47.7742 99.5332 47.7742 98.6188C47.7742 97.2207 47.4114 96.1174 46.686 95.2937C45.9605 94.4776 45.0537 93.7899 43.973 93.2458C42.8924 92.7017 41.7286 92.1953 40.4741 91.7419C39.2197 91.2885 38.0559 90.7142 36.9752 90.0341C35.8946 89.3539 34.9878 88.4773 34.2623 87.4193C33.5368 86.3538 33.1741 84.9331 33.1741 83.1345C33.1741 81.8574 33.4084 80.7012 33.8693 79.6508C34.3303 78.6004 35.0029 77.7011 35.887 76.9378C36.7712 76.1746 37.8292 75.5851 39.061 75.1619C40.3003 74.7387 41.6908 74.5196 43.2324 74.5196C44.774 74.5196 45.9983 74.6934 47.0789 75.0486C48.1596 75.3962 49.1646 75.9403 50.0942 76.6658C49.8145 77.1796 49.5878 77.7313 49.3989 78.3056C49.2175 78.88 49.0286 79.613 48.8397 80.4896H48.2805C48.1218 80.0664 47.9177 79.6054 47.6533 79.0991C47.3888 78.6004 47.0336 78.1318 46.5877 77.7086C46.1419 77.2854 45.6053 76.9227 44.9856 76.6355C44.366 76.3484 43.6254 76.2048 42.7639 76.2048C41.9024 76.2048 41.1014 76.3408 40.3759 76.6129C39.6504 76.8849 39.0156 77.2703 38.4791 77.7766C37.935 78.2754 37.5193 78.88 37.2246 79.5752C36.9299 80.2704 36.7863 81.0337 36.7863 81.8499C36.7863 83.2781 37.1491 84.4041 37.8745 85.2203C38.6 86.0364 39.5068 86.7317 40.5875 87.2909C41.6681 87.8501 42.8395 88.3564 44.0864 88.7947C45.3408 89.233 46.5046 89.7771 47.5852 90.4119C48.6659 91.0467 49.5727 91.8704 50.2982 92.8679C51.0237 93.873 51.3864 95.2106 51.3864 96.8807C51.3864 98.2787 51.1295 99.6012 50.6231 100.841C50.1093 102.087 49.3687 103.168 48.3938 104.098C47.419 105.027 46.2325 105.737 44.8269 106.236C43.4213 106.735 41.8193 106.984 40.0283 106.984C38.1088 106.984 36.5596 106.735 35.3656 106.236C34.1716 105.737 33.1741 105.163 32.373 104.528C32.6527 103.833 32.8416 103.198 32.9549 102.639C33.0607 102.08 33.1665 101.354 33.2572 100.478H33.8164C34.0658 101.022 34.3983 101.574 34.814 102.14V102.148Z" fill="#525A5C"/>
<path d="M50.6836 142.903C50.1773 143.19 49.5728 143.447 48.8548 143.681C48.1445 143.908 47.3434 144.112 46.4593 144.293C45.5751 144.475 44.6532 144.565 43.6934 144.565C41.6455 144.565 39.7487 144.225 38.0106 143.545C36.2725 142.857 34.7762 141.822 33.5142 140.424C32.2522 139.026 31.2698 137.318 30.5594 135.3C29.8491 133.283 29.4863 130.985 29.4863 128.401C29.4863 125.816 29.8415 123.519 30.5594 121.501C31.2698 119.484 32.2748 117.776 33.5595 116.378C34.8442 114.98 36.3783 113.914 38.1693 113.189C39.9603 112.463 41.9327 112.093 44.0864 112.093C45.8018 112.093 47.3586 112.297 48.7717 112.713C50.1849 113.121 51.4393 113.619 52.5275 114.194C52.3235 114.617 52.1497 115.199 52.0212 115.924C51.8927 116.657 51.7869 117.262 51.7114 117.746L51.4771 117.836C51.2202 117.473 50.8574 117.058 50.3889 116.604C49.9204 116.151 49.3763 115.705 48.7566 115.282C48.1369 114.859 47.4341 114.496 46.6558 114.209C45.8774 113.922 45.0235 113.778 44.0864 113.778C42.5523 113.778 41.1392 114.065 39.8243 114.647C38.5169 115.222 37.3758 116.113 36.401 117.315C35.4261 118.516 34.6704 120.035 34.1263 121.872C33.5822 123.708 33.3102 125.884 33.3102 128.408C33.3102 130.932 33.5822 133.109 34.1263 134.945C34.6704 136.782 35.4261 138.301 36.401 139.502C37.3758 140.704 38.5169 141.588 39.8243 142.17C41.1316 142.744 42.5523 143.031 44.0864 143.031C45.0235 143.031 45.8849 142.895 46.6709 142.623C47.4644 142.351 48.1898 142.026 48.8473 141.648C49.5123 141.27 50.1017 140.855 50.6383 140.416C51.1673 139.978 51.6131 139.585 51.9759 139.253L52.1346 139.434L51.7869 142.124C51.5527 142.366 51.1824 142.631 50.6761 142.918L50.6836 142.903Z" fill="#525A5C"/>
<path d="M133.818 33.9085H135.647C138.292 33.9085 139.342 35.435 139.342 37.5963C139.342 40.2714 137.551 41.2992 135.11 41.2992H133.818V33.9085ZM134.551 40.6644H135.155C137.249 40.6644 138.617 39.818 138.617 37.5509C138.617 35.2838 137.271 34.5433 135.624 34.5433H134.551V40.6644Z" fill="#1D1D1B"/>
<path d="M142.055 34.4601H141.39V33.5684H142.055V34.4601ZM141.39 35.9035H142.055V41.2992H141.39V35.9035Z" fill="#1D1D1B"/>
<path d="M147.889 41.1254C147.42 41.3143 146.823 41.4201 146.325 41.4201C144.534 41.4201 143.869 40.211 143.869 38.5938C143.869 36.9766 144.775 35.7675 146.143 35.7675C147.67 35.7675 148.289 36.9917 148.289 38.4427V38.7827H144.594C144.594 39.9238 145.206 40.8458 146.37 40.8458C146.854 40.8458 147.564 40.6417 147.881 40.4453V41.1254H147.889ZM147.564 38.2159C147.564 37.2713 147.186 36.3418 146.189 36.3418C145.191 36.3418 144.602 37.3242 144.602 38.2159H147.564Z" fill="#1D1D1B"/>
<path d="M152.733 40.3545C153.164 40.6266 153.678 40.7928 154.366 40.7928C155.272 40.7928 156.028 40.3243 156.028 39.2815C156.028 37.8305 152.643 37.6491 152.643 35.7146C152.643 34.5281 153.678 33.7875 154.985 33.7875C155.348 33.7875 155.93 33.8404 156.436 34.0294L156.323 34.6944C155.998 34.513 155.476 34.4223 154.978 34.4223C154.214 34.4223 153.376 34.7397 153.376 35.6919C153.376 37.1731 156.761 37.1806 156.761 39.3419C156.761 40.8382 155.476 41.4276 154.335 41.4276C153.617 41.4276 153.051 41.2765 152.665 41.1102L152.741 40.3545H152.733Z" fill="#1D1D1B"/>
<path d="M162.195 36.6214C161.832 36.4627 161.401 36.3494 161.038 36.3494C159.739 36.3494 159.005 37.294 159.005 38.6013C159.005 39.8256 159.746 40.8533 160.963 40.8533C161.386 40.8533 161.779 40.7551 162.179 40.6115L162.24 41.2387C161.786 41.3974 161.363 41.4276 160.857 41.4276C159.119 41.4276 158.272 40.1052 158.272 38.6013C158.272 36.9388 159.338 35.775 160.94 35.775C161.582 35.775 162.051 35.9262 162.24 35.9866L162.187 36.6214H162.195Z" fill="#1D1D1B"/>
<path d="M163.91 33.3568H164.575V36.8103H164.597C164.885 36.2209 165.489 35.775 166.283 35.775C167.733 35.775 168.126 36.7348 168.126 38.0724V41.2992H167.461V38.0799C167.461 37.1504 167.28 36.3418 166.184 36.3418C164.998 36.3418 164.582 37.4678 164.582 38.4049V41.2916H163.917V33.3568H163.91Z" fill="#1D1D1B"/>
<path d="M175.865 41.2992H175.064L173.59 36.629H173.567L172.094 41.2992H171.293L169.555 35.9035H170.288L171.708 40.5737H171.731L173.235 35.9035H174.036L175.464 40.5737H175.487L176.976 35.9035H177.641L175.865 41.2992Z" fill="#1D1D1B"/>
<path d="M182.696 41.1254C182.228 41.3143 181.631 41.4201 181.132 41.4201C179.341 41.4201 178.676 40.211 178.676 38.5938C178.676 36.9766 179.59 35.7675 180.95 35.7675C182.477 35.7675 183.097 36.9917 183.097 38.4427V38.7827H179.401C179.401 39.9238 180.013 40.8458 181.177 40.8458C181.661 40.8458 182.371 40.6417 182.689 40.4453V41.1254H182.696ZM182.371 38.2159C182.371 37.2713 181.993 36.3418 180.996 36.3418C179.998 36.3418 179.409 37.3242 179.409 38.2159H182.371Z" fill="#1D1D1B"/>
<path d="M185.568 34.4601H184.903V33.5684H185.568V34.4601ZM184.903 35.9035H185.568V41.2992H184.903V35.9035Z" fill="#1D1D1B"/>
<path d="M187.276 40.7324L190.525 36.4627H187.404V35.8884H191.304V36.4627L188.054 40.7173H191.304V41.2916H187.283V40.7324H187.276Z" fill="#1D1D1B"/>
<path d="M196.624 41.1254C196.155 41.3143 195.558 41.4201 195.06 41.4201C193.269 41.4201 192.604 40.211 192.604 38.5938C192.604 36.9766 193.518 35.7675 194.878 35.7675C196.405 35.7675 197.024 36.9917 197.024 38.4427V38.7827H193.329C193.329 39.9238 193.941 40.8458 195.105 40.8458C195.589 40.8458 196.299 40.6417 196.616 40.4453V41.1254H196.624ZM196.299 38.2159C196.299 37.2713 195.921 36.3418 194.924 36.3418C193.926 36.3418 193.337 37.3242 193.337 38.2159H196.299Z" fill="#1D1D1B"/>
<path d="M198.823 37.1051C198.823 36.5156 198.823 36.2889 198.778 35.896H199.443V36.9313H199.466C199.707 36.3267 200.161 35.7675 200.848 35.7675C201.007 35.7675 201.196 35.7977 201.317 35.8279V36.5232C201.181 36.4778 201 36.4627 200.833 36.4627C199.775 36.4627 199.488 37.6492 199.488 38.624V41.2916H198.823V37.0975V37.1051Z" fill="#1D1D1B"/>
<path d="M210.793 34.7322C210.324 34.4904 209.659 34.4148 209.146 34.4148C207.226 34.4148 206.153 35.7675 206.153 37.6038C206.153 39.4402 207.203 40.7929 209.146 40.7929C209.629 40.7929 210.37 40.7324 210.793 40.4755L210.838 41.1103C210.438 41.3521 209.614 41.4277 209.146 41.4277C206.818 41.4277 205.42 39.8936 205.42 37.6038C205.42 35.3141 206.856 33.78 209.146 33.78C209.576 33.78 210.46 33.8556 210.838 34.052L210.793 34.7322Z" fill="#1D1D1B"/>
<path d="M213.234 33.3568H213.899V36.8103H213.922C214.209 36.2209 214.814 35.775 215.607 35.775C217.058 35.775 217.451 36.7348 217.451 38.0724V41.2992H216.786V38.0799C216.786 37.1504 216.605 36.3418 215.509 36.3418C214.323 36.3418 213.907 37.4678 213.907 38.4049V41.2916H213.242V33.3568H213.234Z" fill="#1D1D1B"/>
<path d="M220.315 34.4601H219.65V33.5684H220.315V34.4601ZM219.65 35.9035H220.315V41.2992H219.65V35.9035Z" fill="#1D1D1B"/>
<path d="M222.522 37.1051C222.522 36.5156 222.522 36.2889 222.477 35.896H223.142V36.9313H223.164C223.406 36.3267 223.859 35.7675 224.547 35.7675C224.706 35.7675 224.895 35.7977 225.016 35.8279V36.5232C224.88 36.4778 224.698 36.4627 224.532 36.4627C223.474 36.4627 223.187 37.6492 223.187 38.624V41.2916H222.522V37.0975V37.1051Z" fill="#1D1D1B"/>
<path d="M230.789 40.0296C230.789 40.4453 230.789 40.8684 230.835 41.2992H230.192V40.3395H230.17C229.95 40.8231 229.542 41.4277 228.424 41.4277C227.094 41.4277 226.58 40.5359 226.58 39.3495V35.896H227.245V39.1757C227.245 40.1883 227.608 40.8458 228.522 40.8458C229.739 40.8458 230.124 39.7802 230.124 38.8734V35.8884H230.789V40.0145V40.0296Z" fill="#1D1D1B"/>
<path d="M232.988 37.1051C232.988 36.5156 232.988 36.2889 232.943 35.896H233.608V36.9313H233.631C233.872 36.3267 234.326 35.7675 235.013 35.7675C235.172 35.7675 235.361 35.7977 235.482 35.8279V36.5232C235.346 36.4778 235.165 36.4627 234.998 36.4627C233.94 36.4627 233.653 37.6492 233.653 38.624V41.2916H232.988V37.0975V37.1051Z" fill="#1D1D1B"/>
<path d="M241.316 40.8533C241.316 42.3572 240.636 43.5814 238.784 43.5814C238.074 43.5814 237.432 43.3774 237.152 43.2942L237.205 42.6292C237.62 42.8408 238.21 43.0071 238.792 43.0071C240.507 43.0071 240.658 41.7602 240.658 40.2337H240.636C240.273 41.0196 239.684 41.2916 238.996 41.2916C237.273 41.2916 236.721 39.7878 236.721 38.5938C236.721 36.9539 237.356 35.7675 238.943 35.7675C239.661 35.7675 240.129 35.8657 240.628 36.5081H240.651V35.896H241.316V40.8533ZM239.011 40.7249C240.22 40.7249 240.651 39.5838 240.651 38.5938C240.651 37.294 240.273 36.3418 239.049 36.3418C237.825 36.3418 237.454 37.5509 237.454 38.5938C237.454 39.6367 237.877 40.7249 239.011 40.7249Z" fill="#1D1D1B"/>
<path d="M244.12 34.4601H243.455V33.5684H244.12V34.4601ZM243.455 35.9035H244.12V41.2992H243.455V35.9035Z" fill="#1D1D1B"/>
<path d="M246.326 37.1655C246.326 36.7499 246.326 36.3267 246.281 35.896H246.923V36.8557H246.946C247.165 36.372 247.573 35.7675 248.691 35.7675C250.021 35.7675 250.535 36.6592 250.535 37.8457V41.2992H249.87V38.0195C249.87 37.0068 249.508 36.3494 248.593 36.3494C247.377 36.3494 246.991 37.4225 246.991 38.3217V41.3067H246.326V37.1806V37.1655Z" fill="#1D1D1B"/>
<path d="M252.742 37.1655C252.742 36.7499 252.742 36.3267 252.697 35.896H253.339V36.8557H253.362C253.581 36.372 253.989 35.7675 255.107 35.7675C256.437 35.7675 256.951 36.6592 256.951 37.8457V41.2992H256.286V38.0195C256.286 37.0068 255.924 36.3494 255.009 36.3494C253.793 36.3494 253.407 37.4225 253.407 38.3217V41.3067H252.742V37.1806V37.1655Z" fill="#1D1D1B"/>
<path d="M262.77 41.1254C262.302 41.3143 261.705 41.4201 261.206 41.4201C259.415 41.4201 258.75 40.211 258.75 38.5938C258.75 36.9766 259.664 35.7675 261.025 35.7675C262.551 35.7675 263.171 36.9917 263.171 38.4427V38.7827H259.475C259.475 39.9238 260.088 40.8458 261.251 40.8458C261.735 40.8458 262.445 40.6417 262.763 40.4453V41.1254H262.77ZM262.445 38.2159C262.445 37.2713 262.067 36.3418 261.07 36.3418C260.072 36.3418 259.483 37.3242 259.483 38.2159H262.445Z" fill="#1D1D1B"/>
<path d="M264.969 37.1655C264.969 36.7499 264.969 36.3267 264.924 35.896H265.566V36.8557H265.589C265.808 36.372 266.216 35.7675 267.335 35.7675C268.665 35.7675 269.178 36.6592 269.178 37.8457V41.2992H268.513V38.0195C268.513 37.0068 268.151 36.3494 267.236 36.3494C266.02 36.3494 265.634 37.4225 265.634 38.3217V41.3067H264.969V37.1806V37.1655Z" fill="#1D1D1B"/>
<path d="M278.368 40.0296C278.368 40.4453 278.368 40.8684 278.413 41.2992H277.771V40.3395H277.748C277.529 40.8231 277.121 41.4277 276.003 41.4277C274.673 41.4277 274.159 40.5359 274.159 39.3495V35.896H274.824V39.1757C274.824 40.1883 275.186 40.8458 276.101 40.8458C277.318 40.8458 277.703 39.7802 277.703 38.8734V35.8884H278.368V40.0145V40.0296Z" fill="#1D1D1B"/>
<path d="M280.567 37.1655C280.567 36.7499 280.567 36.3267 280.521 35.896H281.164V36.8557H281.186C281.406 36.372 281.814 35.7675 282.932 35.7675C284.262 35.7675 284.776 36.6592 284.776 37.8457V41.2992H284.111V38.0195C284.111 37.0068 283.748 36.3494 282.834 36.3494C281.617 36.3494 281.232 37.4225 281.232 38.3217V41.3067H280.567V37.1806V37.1655Z" fill="#1D1D1B"/>
<path d="M291.252 41.2992H290.587V40.4452H290.565C290.202 41.1329 289.65 41.4277 288.879 41.4277C287.398 41.4277 286.658 40.2034 286.658 38.6013C286.658 36.9993 287.293 35.775 288.879 35.775C289.937 35.775 290.466 36.5459 290.565 36.8103H290.587V33.3568H291.252V41.2992ZM288.985 40.8533C290.172 40.8533 290.587 39.5838 290.587 38.6013C290.587 37.6189 290.172 36.3494 288.985 36.3494C287.716 36.3494 287.391 37.5585 287.391 38.6013C287.391 39.6442 287.716 40.8533 288.985 40.8533Z" fill="#1D1D1B"/>
<path d="M301.311 34.7322C300.842 34.4904 300.177 34.4148 299.664 34.4148C297.744 34.4148 296.671 35.7675 296.671 37.6038C296.671 39.4402 297.721 40.7929 299.664 40.7929C300.147 40.7929 300.888 40.7324 301.311 40.4755L301.356 41.1103C300.956 41.3521 300.132 41.4277 299.664 41.4277C297.336 41.4277 295.938 39.8936 295.938 37.6038C295.938 35.3141 297.374 33.78 299.664 33.78C300.094 33.78 300.978 33.8556 301.356 34.052L301.311 34.7322Z" fill="#1D1D1B"/>
<path d="M303.751 33.3568H304.416V36.8103H304.439C304.726 36.2209 305.331 35.775 306.124 35.775C307.575 35.775 307.968 36.7348 307.968 38.0724V41.2992H307.303V38.0799C307.303 37.1504 307.122 36.3418 306.026 36.3418C304.84 36.3418 304.424 37.4678 304.424 38.4049V41.2916H303.759V33.3568H303.751Z" fill="#1D1D1B"/>
<path d="M310.832 34.4601H310.167V33.5684H310.832V34.4601ZM310.167 35.9035H310.832V41.2992H310.167V35.9035Z" fill="#1D1D1B"/>
<path d="M313.039 37.1051C313.039 36.5156 313.039 36.2889 312.994 35.896H313.659V36.9313H313.681C313.923 36.3267 314.377 35.7675 315.064 35.7675C315.223 35.7675 315.412 35.7977 315.533 35.8279V36.5232C315.397 36.4778 315.215 36.4627 315.049 36.4627C313.991 36.4627 313.704 37.6492 313.704 38.624V41.2916H313.039V37.0975V37.1051Z" fill="#1D1D1B"/>
<path d="M321.306 40.0296C321.306 40.4453 321.306 40.8684 321.352 41.2992H320.709V40.3395H320.687C320.468 40.8231 320.06 41.4277 318.941 41.4277C317.611 41.4277 317.097 40.5359 317.097 39.3495V35.896H317.762V39.1757C317.762 40.1883 318.125 40.8458 319.039 40.8458C320.256 40.8458 320.641 39.7802 320.641 38.8734V35.8884H321.306V40.0145V40.0296Z" fill="#1D1D1B"/>
<path d="M323.505 37.1051C323.505 36.5156 323.505 36.2889 323.46 35.896H324.125V36.9313H324.148C324.389 36.3267 324.843 35.7675 325.531 35.7675C325.689 35.7675 325.878 35.7977 325.999 35.8279V36.5232C325.863 36.4778 325.682 36.4627 325.515 36.4627C324.457 36.4627 324.17 37.6492 324.17 38.624V41.2916H323.505V37.0975V37.1051Z" fill="#1D1D1B"/>
<path d="M331.833 40.8533C331.833 42.3572 331.153 43.5814 329.301 43.5814C328.591 43.5814 327.949 43.3774 327.669 43.2942L327.722 42.6292C328.138 42.8408 328.727 43.0071 329.309 43.0071C331.024 43.0071 331.175 41.7602 331.175 40.2337H331.153C330.79 41.0196 330.201 41.2916 329.513 41.2916C327.79 41.2916 327.238 39.7878 327.238 38.5938C327.238 36.9539 327.873 35.7675 329.46 35.7675C330.178 35.7675 330.646 35.8657 331.145 36.5081H331.168V35.896H331.833V40.8533ZM329.528 40.7249C330.737 40.7249 331.168 39.5838 331.168 38.5938C331.168 37.294 330.79 36.3418 329.566 36.3418C328.342 36.3418 327.971 37.5509 327.971 38.5938C327.971 39.6367 328.394 40.7249 329.528 40.7249Z" fill="#1D1D1B"/>
<path d="M337.584 41.1254C337.116 41.3143 336.511 41.4201 336.02 41.4201C334.229 41.4201 333.564 40.211 333.564 38.5938C333.564 36.9766 334.478 35.7675 335.839 35.7675C337.365 35.7675 337.985 36.9917 337.985 38.4427V38.7827H334.289C334.289 39.9238 334.902 40.8458 336.065 40.8458C336.549 40.8458 337.259 40.6417 337.577 40.4453V41.1254H337.584ZM337.259 38.2159C337.259 37.2713 336.881 36.3418 335.884 36.3418C334.886 36.3418 334.297 37.3242 334.297 38.2159H337.259Z" fill="#1D1D1B"/>
<path d="M339.783 37.1655C339.783 36.7499 339.783 36.3267 339.738 35.896H340.38V36.8557H340.403C340.622 36.372 341.03 35.7675 342.148 35.7675C343.478 35.7675 343.992 36.6592 343.992 37.8457V41.2992H343.327V38.0195C343.327 37.0068 342.965 36.3494 342.05 36.3494C340.834 36.3494 340.448 37.4225 340.448 38.3217V41.3067H339.783V37.1806V37.1655Z" fill="#1D1D1B"/>
<path d="M133.818 46.6042H134.551V53.3601H137.513V53.9949H133.818V46.6042Z" fill="#1D1D1B"/>
<path d="M142.652 53.8211C142.184 54.01 141.587 54.1158 141.088 54.1158C139.297 54.1158 138.632 52.9067 138.632 51.2895C138.632 49.6723 139.539 48.4632 140.906 48.4632C142.433 48.4632 143.053 49.6874 143.053 51.1384V51.4784H139.357C139.357 52.6195 139.969 53.5415 141.133 53.5415C141.617 53.5415 142.327 53.3374 142.645 53.141V53.8211H142.652ZM142.327 50.9117C142.327 49.967 141.949 49.0375 140.952 49.0375C139.954 49.0375 139.365 50.0199 139.365 50.9117H142.327Z" fill="#1D1D1B"/>
<path d="M151.138 49.3171C150.776 49.1584 150.345 49.0451 149.982 49.0451C148.682 49.0451 147.949 49.9897 147.949 51.297C147.949 52.5213 148.69 53.549 149.907 53.549C150.33 53.549 150.723 53.4508 151.123 53.3072L151.184 53.9344C150.73 54.0931 150.307 54.1233 149.801 54.1233C148.063 54.1233 147.216 52.8009 147.216 51.297C147.216 49.6345 148.282 48.4707 149.884 48.4707C150.526 48.4707 150.995 48.6219 151.184 48.6823L151.131 49.3171H151.138Z" fill="#1D1D1B"/>
<path d="M152.854 46.0525H153.519V49.506H153.542C153.829 48.9166 154.433 48.4707 155.227 48.4707C156.678 48.4707 157.071 49.4305 157.071 50.7681V53.9949H156.406V50.7756C156.406 49.8461 156.224 49.0375 155.121 49.0375C153.935 49.0375 153.519 50.1635 153.519 51.1006V53.9873H152.854V46.045V46.0525Z" fill="#1D1D1B"/>
<path d="M159.927 47.1559H159.262V46.2641H159.927V47.1559ZM159.262 48.5992H159.927V53.9949H159.262V48.5992Z" fill="#1D1D1B"/>
<path d="M162.142 49.8008C162.142 49.2113 162.142 48.9846 162.096 48.5917H162.761V49.627H162.784C163.026 49.0224 163.479 48.4632 164.167 48.4632C164.325 48.4632 164.514 48.4934 164.635 48.5237V49.2189C164.499 49.1736 164.318 49.1584 164.152 49.1584C163.094 49.1584 162.807 50.3449 162.807 51.3197V53.9873H162.142V49.7932V49.8008Z" fill="#1D1D1B"/>
<path d="M170.409 52.7253C170.409 53.141 170.409 53.5642 170.454 53.9949H169.812V53.0352H169.789C169.57 53.5188 169.162 54.1234 168.044 54.1234C166.714 54.1234 166.2 53.2316 166.2 52.0452V48.5917H166.865V51.8714C166.865 52.884 167.227 53.5415 168.142 53.5415C169.359 53.5415 169.744 52.4759 169.744 51.5691V48.5841H170.409V52.7102V52.7253Z" fill="#1D1D1B"/>
<path d="M172.601 49.8008C172.601 49.2113 172.601 48.9846 172.555 48.5917H173.22V49.627H173.243C173.485 49.0224 173.938 48.4632 174.626 48.4632C174.784 48.4632 174.973 48.4934 175.094 48.5237V49.2189C174.958 49.1736 174.777 49.1584 174.611 49.1584C173.553 49.1584 173.266 50.3449 173.266 51.3197V53.9873H172.601V49.7932V49.8008Z" fill="#1D1D1B"/>
<path d="M180.935 53.549C180.935 55.0529 180.255 56.2771 178.404 56.2771C177.694 56.2771 177.051 56.0731 176.772 55.9899L176.824 55.3249C177.24 55.5365 177.83 55.7028 178.411 55.7028C180.127 55.7028 180.278 54.4559 180.278 52.9294H180.255C179.893 53.7153 179.303 53.9873 178.615 53.9873C176.892 53.9873 176.341 52.4835 176.341 51.2895C176.341 49.6496 176.976 48.4632 178.563 48.4632C179.28 48.4632 179.749 48.5614 180.248 49.2038H180.27V48.5917H180.935V53.549ZM178.631 53.4206C179.84 53.4206 180.27 52.2795 180.27 51.2895C180.27 49.9897 179.893 49.0375 178.668 49.0375C177.444 49.0375 177.074 50.2466 177.074 51.2895C177.074 52.3324 177.497 53.4206 178.631 53.4206Z" fill="#1D1D1B"/>
<path d="M183.066 46.0525H183.731V49.506H183.754C184.041 48.9166 184.646 48.4707 185.439 48.4707C186.89 48.4707 187.283 49.4305 187.283 50.7681V53.9949H186.618V50.7756C186.618 49.8461 186.437 49.0375 185.341 49.0375C184.155 49.0375 183.739 50.1635 183.739 51.1006V53.9873H183.074V46.045L183.066 46.0525Z" fill="#1D1D1B"/>
<path d="M193.102 53.8211C192.634 54.01 192.037 54.1158 191.538 54.1158C189.747 54.1158 189.082 52.9067 189.082 51.2895C189.082 49.6723 189.996 48.4632 191.357 48.4632C192.883 48.4632 193.503 49.6874 193.503 51.1384V51.4784H189.808C189.808 52.6195 190.42 53.5415 191.583 53.5415C192.067 53.5415 192.777 53.3374 193.095 53.141V53.8211H193.102ZM192.777 50.9117C192.777 49.967 192.4 49.0375 191.402 49.0375C190.405 49.0375 189.815 50.0199 189.815 50.9117H192.777Z" fill="#1D1D1B"/>
<path d="M201.695 53.8211C201.226 54.01 200.622 54.1158 200.13 54.1158C198.339 54.1158 197.674 52.9067 197.674 51.2895C197.674 49.6723 198.589 48.4632 199.949 48.4632C201.475 48.4632 202.095 49.6874 202.095 51.1384V51.4784H198.4C198.4 52.6195 199.012 53.5415 200.176 53.5415C200.659 53.5415 201.37 53.3374 201.687 53.141V53.8211H201.695ZM201.37 50.9117C201.37 49.967 200.992 49.0375 199.994 49.0375C198.997 49.0375 198.407 50.0199 198.407 50.9117H201.37Z" fill="#1D1D1B"/>
<path d="M207.332 47.1559H206.667V46.2641H207.332V47.1559ZM206.667 48.5992H207.332V53.9949H206.667V48.5992Z" fill="#1D1D1B"/>
<path d="M215.834 49.3171C215.471 49.1584 215.04 49.0451 214.677 49.0451C213.378 49.0451 212.645 49.9897 212.645 51.297C212.645 52.5213 213.385 53.549 214.602 53.549C215.025 53.549 215.418 53.4508 215.819 53.3072L215.879 53.9344C215.426 54.0931 215.002 54.1233 214.496 54.1233C212.758 54.1233 211.912 52.8009 211.912 51.297C211.912 49.6345 212.977 48.4707 214.579 48.4707C215.222 48.4707 215.69 48.6219 215.879 48.6823L215.826 49.3171H215.834Z" fill="#1D1D1B"/>
<path d="M217.549 46.0525H218.214V49.506H218.237C218.524 48.9166 219.129 48.4707 219.922 48.4707C221.373 48.4707 221.766 49.4305 221.766 50.7681V53.9949H221.101V50.7756C221.101 49.8461 220.92 49.0375 219.824 49.0375C218.638 49.0375 218.222 50.1635 218.222 51.1006V53.9873H217.557V46.045L217.549 46.0525Z" fill="#1D1D1B"/>
<path d="M224.63 47.1559H223.965V46.2641H224.63V47.1559ZM223.965 48.5992H224.63V53.9949H223.965V48.5992Z" fill="#1D1D1B"/>
<path d="M226.836 49.8008C226.836 49.2113 226.836 48.9846 226.791 48.5917H227.456V49.627H227.479C227.721 49.0224 228.174 48.4632 228.862 48.4632C229.02 48.4632 229.209 48.4934 229.33 48.5237V49.2189C229.194 49.1736 229.013 49.1584 228.847 49.1584C227.789 49.1584 227.501 50.3449 227.501 51.3197V53.9873H226.836V49.7932V49.8008Z" fill="#1D1D1B"/>
<path d="M235.104 52.7253C235.104 53.141 235.104 53.5642 235.15 53.9949H234.507V53.0352H234.485C234.265 53.5188 233.857 54.1234 232.739 54.1234C231.409 54.1234 230.895 53.2316 230.895 52.0452V48.5917H231.56V51.8714C231.56 52.884 231.923 53.5415 232.837 53.5415C234.054 53.5415 234.439 52.4759 234.439 51.5691V48.5841H235.104V52.7102V52.7253Z" fill="#1D1D1B"/>
<path d="M237.303 49.8008C237.303 49.2113 237.303 48.9846 237.258 48.5917H237.923V49.627H237.945C238.187 49.0224 238.641 48.4632 239.328 48.4632C239.487 48.4632 239.676 48.4934 239.797 48.5237V49.2189C239.661 49.1736 239.48 49.1584 239.313 49.1584C238.255 49.1584 237.968 50.3449 237.968 51.3197V53.9873H237.303V49.7932V49.8008Z" fill="#1D1D1B"/>
<path d="M245.631 53.549C245.631 55.0529 244.951 56.2771 243.099 56.2771C242.389 56.2771 241.746 56.0731 241.467 55.9899L241.52 55.3249C241.935 55.5365 242.525 55.7028 243.107 55.7028C244.822 55.7028 244.973 54.4559 244.973 52.9294H244.951C244.588 53.7153 243.998 53.9873 243.311 53.9873C241.588 53.9873 241.036 52.4835 241.036 51.2895C241.036 49.6496 241.671 48.4632 243.258 48.4632C243.976 48.4632 244.444 48.5614 244.943 49.2038H244.966V48.5917H245.631V53.549ZM243.326 53.4206C244.535 53.4206 244.966 52.2795 244.966 51.2895C244.966 49.9897 244.588 49.0375 243.364 49.0375C242.139 49.0375 241.769 50.2466 241.769 51.2895C241.769 52.3324 242.192 53.4206 243.326 53.4206Z" fill="#1D1D1B"/>
<path d="M247.762 46.0525H248.427V49.506H248.45C248.737 48.9166 249.342 48.4707 250.135 48.4707C251.586 48.4707 251.979 49.4305 251.979 50.7681V53.9949H251.314V50.7756C251.314 49.8461 251.133 49.0375 250.037 49.0375C248.85 49.0375 248.435 50.1635 248.435 51.1006V53.9873H247.77V46.045L247.762 46.0525Z" fill="#1D1D1B"/>
<path d="M254.843 47.1559H254.178V46.2641H254.843V47.1559ZM254.178 48.5992H254.843V53.9949H254.178V48.5992Z" fill="#1D1D1B"/>
<path d="M259.415 53.209C259.815 53.413 260.306 53.549 260.82 53.549C261.455 53.549 262.014 53.2014 262.014 52.5817C262.014 51.3046 259.422 51.5011 259.422 49.9368C259.422 48.8713 260.291 48.4632 261.183 48.4632C261.47 48.4632 262.037 48.5237 262.513 48.705L262.453 49.2869C262.105 49.1282 261.629 49.03 261.259 49.03C260.571 49.03 260.095 49.2416 260.095 49.9292C260.095 50.9343 262.755 50.8059 262.755 52.5742C262.755 53.7153 261.682 54.1083 260.873 54.1083C260.352 54.1083 259.838 54.0478 259.362 53.8513L259.422 53.1939L259.415 53.209Z" fill="#1D1D1B"/>
<path d="M266.345 53.9949H265.559L263.73 48.5992H264.463L265.952 53.2694H265.974L267.539 48.5992H268.234L266.337 53.9949H266.345Z" fill="#1D1D1B"/>
<path d="M270.365 47.1559H269.7V46.2641H270.365V47.1559ZM269.7 48.5992H270.365V53.9949H269.7V48.5992Z" fill="#1D1D1B"/>
<path d="M272.081 53.4281L275.33 49.1584H272.209V48.5841H276.108V49.1584L272.859 53.413H276.108V53.9873H272.088V53.4281H272.081Z" fill="#1D1D1B"/>
<path d="M277.302 53.4281L280.552 49.1584H277.431V48.5841H281.33V49.1584L278.081 53.413H281.33V53.9873H277.31V53.4281H277.302Z" fill="#1D1D1B"/>
<path d="M286.65 53.8211C286.181 54.01 285.577 54.1158 285.085 54.1158C283.294 54.1158 282.629 52.9067 282.629 51.2895C282.629 49.6723 283.544 48.4632 284.904 48.4632C286.431 48.4632 287.05 49.6874 287.05 51.1384V51.4784H283.355C283.355 52.6195 283.967 53.5415 285.131 53.5415C285.614 53.5415 286.325 53.3374 286.642 53.141V53.8211H286.65ZM286.325 50.9117C286.325 49.967 285.947 49.0375 284.949 49.0375C283.952 49.0375 283.362 50.0199 283.362 50.9117H286.325Z" fill="#1D1D1B"/>
<path d="M288.849 49.8008C288.849 49.2113 288.849 48.9846 288.804 48.5917H289.469V49.627H289.491C289.733 49.0224 290.187 48.4632 290.874 48.4632C291.033 48.4632 291.222 48.4934 291.343 48.5237V49.2189C291.207 49.1736 291.025 49.1584 290.859 49.1584C289.801 49.1584 289.514 50.3449 289.514 51.3197V53.9873H288.849V49.7932V49.8008Z" fill="#1D1D1B"/>
<path d="M293.565 47.1559H292.9V46.2641H293.565V47.1559ZM292.9 48.5992H293.565V53.9949H292.9V48.5992Z" fill="#1D1D1B"/>
<path d="M133.818 59.2999H134.551V66.0558H137.513V66.6906H133.818V59.2999Z" fill="#1D1D1B"/>
<path d="M142.652 66.5168C142.184 66.7057 141.587 66.8115 141.088 66.8115C139.297 66.8115 138.632 65.6024 138.632 63.9852C138.632 62.368 139.539 61.1589 140.906 61.1589C142.433 61.1589 143.053 62.3831 143.053 63.8341V64.1741H139.357C139.357 65.3152 139.969 66.2372 141.133 66.2372C141.617 66.2372 142.327 66.0332 142.645 65.8367V66.5168H142.652ZM142.327 63.6074C142.327 62.6627 141.949 61.7332 140.952 61.7332C139.954 61.7332 139.365 62.7156 139.365 63.6074H142.327Z" fill="#1D1D1B"/>
<path d="M144.435 65.9047C144.836 66.1087 145.327 66.2448 145.841 66.2448C146.476 66.2448 147.035 65.8971 147.035 65.2775C147.035 64.0003 144.443 64.1968 144.443 62.6325C144.443 61.567 145.312 61.1589 146.204 61.1589C146.491 61.1589 147.058 61.2194 147.541 61.4007L147.481 61.9826C147.133 61.8239 146.657 61.7257 146.287 61.7257C145.599 61.7257 145.123 61.9373 145.123 62.625C145.123 63.63 147.783 63.5016 147.783 65.2699C147.783 66.411 146.718 66.804 145.902 66.804C145.38 66.804 144.866 66.7435 144.39 66.547L144.451 65.8896L144.435 65.9047Z" fill="#1D1D1B"/>
<path d="M155.786 62.0053C155.423 61.8466 154.992 61.7332 154.63 61.7332C153.33 61.7332 152.597 62.6779 152.597 63.9852C152.597 65.2094 153.337 66.2372 154.554 66.2372C154.977 66.2372 155.37 66.1389 155.771 65.9954L155.831 66.6226C155.378 66.7813 154.955 66.8115 154.448 66.8115C152.71 66.8115 151.864 65.489 151.864 63.9852C151.864 62.3227 152.929 61.1589 154.531 61.1589C155.174 61.1589 155.642 61.31 155.831 61.3705L155.778 62.0053H155.786Z" fill="#1D1D1B"/>
<path d="M157.494 58.7483H158.159V62.2018H158.181C158.469 61.6123 159.073 61.1665 159.867 61.1665C161.317 61.1665 161.71 62.1262 161.71 63.4638V66.6906H161.045V63.4714C161.045 62.5419 160.864 61.7333 159.768 61.7333C158.582 61.7333 158.166 62.8592 158.166 63.7963V66.6831H157.501V58.7407L157.494 58.7483Z" fill="#1D1D1B"/>
<path d="M164.575 59.8516H163.91V58.9598H164.575V59.8516ZM163.91 61.2949H164.575V66.6906H163.91V61.2949Z" fill="#1D1D1B"/>
<path d="M166.782 62.4965C166.782 61.907 166.782 61.6803 166.736 61.2874H167.401V62.3227H167.424C167.666 61.7181 168.119 61.1589 168.814 61.1589C168.973 61.1589 169.162 61.1891 169.283 61.2194V61.9146C169.147 61.8693 168.966 61.8541 168.799 61.8541C167.741 61.8541 167.454 63.0406 167.454 64.0154V66.6831H166.789V62.4889L166.782 62.4965Z" fill="#1D1D1B"/>
<path d="M175.049 65.421C175.049 65.8367 175.049 66.2599 175.094 66.6906H174.452V65.7309H174.429C174.21 66.2145 173.802 66.8191 172.683 66.8191C171.353 66.8191 170.839 65.9274 170.839 64.7409V61.2874H171.504V64.5671C171.504 65.5797 171.867 66.2372 172.782 66.2372C173.998 66.2372 174.384 65.1717 174.384 64.2648V61.2798H175.049V65.4059V65.421Z" fill="#1D1D1B"/>
<path d="M177.248 62.4965C177.248 61.907 177.248 61.6803 177.203 61.2874H177.868V62.3227H177.89C178.132 61.7181 178.586 61.1589 179.273 61.1589C179.432 61.1589 179.621 61.1891 179.742 61.2194V61.9146C179.606 61.8693 179.424 61.8541 179.258 61.8541C178.2 61.8541 177.913 63.0406 177.913 64.0154V66.6831H177.248V62.4889V62.4965Z" fill="#1D1D1B"/>
<path d="M185.576 66.2447C185.576 67.7486 184.895 68.9728 183.044 68.9728C182.334 68.9728 181.691 68.7688 181.412 68.6856L181.465 68.0206C181.88 68.2322 182.47 68.3985 183.052 68.3985C184.767 68.3985 184.918 67.1516 184.918 65.6251H184.895C184.533 66.411 183.943 66.683 183.256 66.683C181.533 66.683 180.981 65.1792 180.981 63.9852C180.981 62.3453 181.616 61.1589 183.203 61.1589C183.921 61.1589 184.389 61.2571 184.888 61.8995H184.911V61.2874H185.576V66.2447ZM183.271 66.1163C184.48 66.1163 184.911 64.9752 184.911 63.9852C184.911 62.6854 184.533 61.7332 183.309 61.7332C182.084 61.7332 181.714 62.9423 181.714 63.9852C181.714 65.0281 182.137 66.1163 183.271 66.1163Z" fill="#1D1D1B"/>
<path d="M188.379 59.8516H187.714V58.9598H188.379V59.8516ZM187.714 61.2949H188.379V66.6906H187.714V61.2949Z" fill="#1D1D1B"/>
<path d="M194.206 66.5168C193.737 66.7057 193.133 66.8115 192.642 66.8115C190.851 66.8115 190.186 65.6024 190.186 63.9852C190.186 62.368 191.1 61.1589 192.46 61.1589C193.987 61.1589 194.606 62.3831 194.606 63.8341V64.1741H190.911C190.911 65.3152 191.523 66.2372 192.687 66.2372C193.171 66.2372 193.881 66.0332 194.198 65.8367V66.5168H194.206ZM193.881 63.6074C193.881 62.6627 193.503 61.7332 192.506 61.7332C191.508 61.7332 190.919 62.7156 190.919 63.6074H193.881Z" fill="#1D1D1B"/>
<path d="M196.405 62.5569C196.405 62.1413 196.405 61.7181 196.359 61.2874H197.002V62.2471H197.024C197.244 61.7635 197.652 61.1589 198.77 61.1589C200.1 61.1589 200.614 62.0506 200.614 63.2371V66.6906H199.949V63.4109C199.949 62.3982 199.586 61.7408 198.672 61.7408C197.455 61.7408 197.07 62.8063 197.07 63.7132V66.6982H196.405V62.5721V62.5569Z" fill="#1D1D1B"/>
<path d="M202.821 62.5569C202.821 62.1413 202.821 61.7181 202.775 61.2874H203.418V62.2471H203.44C203.66 61.7635 204.068 61.1589 205.186 61.1589C206.516 61.1589 207.03 62.0506 207.03 63.2371V66.6906H206.365V63.4109C206.365 62.3982 206.002 61.7408 205.088 61.7408C203.871 61.7408 203.486 62.8063 203.486 63.7132V66.6982H202.821V62.5721V62.5569Z" fill="#1D1D1B"/>
<path d="M212.848 66.5168C212.38 66.7057 211.783 66.8115 211.284 66.8115C209.493 66.8115 208.828 65.6024 208.828 63.9852C208.828 62.368 209.743 61.1589 211.103 61.1589C212.629 61.1589 213.249 62.3831 213.249 63.8341V64.1741H209.554C209.554 65.3152 210.166 66.2372 211.329 66.2372C211.813 66.2372 212.523 66.0332 212.841 65.8367V66.5168H212.848ZM212.523 63.6074C212.523 62.6627 212.146 61.7332 211.148 61.7332C210.151 61.7332 209.561 62.7156 209.561 63.6074H212.523Z" fill="#1D1D1B"/>
<path d="M214.64 65.9047C215.04 66.1087 215.532 66.2448 216.045 66.2448C216.68 66.2448 217.239 65.8971 217.239 65.2775C217.239 64.0003 214.647 64.1968 214.647 62.6325C214.647 61.567 215.516 61.1589 216.408 61.1589C216.695 61.1589 217.262 61.2194 217.738 61.4007L217.678 61.9826C217.33 61.8239 216.854 61.7257 216.484 61.7257C215.796 61.7257 215.32 61.9373 215.32 62.625C215.32 63.63 217.98 63.5016 217.98 65.2699C217.98 66.411 216.914 66.804 216.098 66.804C215.577 66.804 215.063 66.7435 214.587 66.547L214.647 65.8896L214.64 65.9047Z" fill="#1D1D1B"/>
<path d="M226.089 66.5168C225.62 66.7057 225.016 66.8115 224.524 66.8115C222.733 66.8115 222.068 65.6024 222.068 63.9852C222.068 62.368 222.983 61.1589 224.343 61.1589C225.87 61.1589 226.489 62.3831 226.489 63.8341V64.1741H222.794C222.794 65.3152 223.406 66.2372 224.57 66.2372C225.053 66.2372 225.764 66.0332 226.081 65.8367V66.5168H226.089ZM225.764 63.6074C225.764 62.6627 225.386 61.7332 224.388 61.7332C223.391 61.7332 222.801 62.7156 222.801 63.6074H225.764Z" fill="#1D1D1B"/>
<path d="M230.615 61.8617H229.391V65.353C229.391 65.8367 229.572 66.2447 230.109 66.2447C230.366 66.2447 230.532 66.1918 230.721 66.1163L230.766 66.6679C230.608 66.7284 230.283 66.8191 229.95 66.8191C228.764 66.8191 228.726 66.0029 228.726 65.0205V61.8693H227.668V61.2949H228.726V59.9951L229.391 59.7609V61.2949H230.615V61.8693V61.8617Z" fill="#1D1D1B"/>
<path d="M238.633 62.0053C238.27 61.8466 237.84 61.7332 237.477 61.7332C236.177 61.7332 235.444 62.6779 235.444 63.9852C235.444 65.2094 236.185 66.2372 237.401 66.2372C237.824 66.2372 238.217 66.1389 238.618 65.9954L238.678 66.6226C238.225 66.7813 237.802 66.8115 237.295 66.8115C235.557 66.8115 234.711 65.489 234.711 63.9852C234.711 62.3227 235.776 61.1589 237.379 61.1589C238.021 61.1589 238.489 61.31 238.678 61.3705L238.625 62.0053H238.633Z" fill="#1D1D1B"/>
<path d="M240.341 58.7483H241.006V62.2018H241.029C241.316 61.6123 241.92 61.1665 242.714 61.1665C244.165 61.1665 244.558 62.1262 244.558 63.4638V66.6906H243.893V63.4714C243.893 62.5419 243.711 61.7333 242.615 61.7333C241.429 61.7333 241.013 62.8592 241.013 63.7963V66.6831H240.348V58.7407L240.341 58.7483Z" fill="#1D1D1B"/>
<path d="M247.422 59.8516H246.757V58.9598H247.422V59.8516ZM246.757 61.2949H247.422V66.6906H246.757V61.2949Z" fill="#1D1D1B"/>
<path d="M249.628 62.4965C249.628 61.907 249.628 61.6803 249.583 61.2874H250.248V62.3227H250.271C250.513 61.7181 250.966 61.1589 251.654 61.1589C251.812 61.1589 252.001 61.1891 252.122 61.2194V61.9146C251.986 61.8693 251.805 61.8541 251.639 61.8541C250.581 61.8541 250.293 63.0406 250.293 64.0154V66.6831H249.628V62.4889V62.4965Z" fill="#1D1D1B"/>
<path d="M257.896 65.421C257.896 65.8367 257.896 66.2599 257.941 66.6906H257.299V65.7309H257.276C257.057 66.2145 256.649 66.8191 255.53 66.8191C254.2 66.8191 253.687 65.9274 253.687 64.7409V61.2874H254.352V64.5671C254.352 65.5797 254.714 66.2372 255.629 66.2372C256.845 66.2372 257.231 65.1717 257.231 64.2648V61.2798H257.896V65.4059V65.421Z" fill="#1D1D1B"/>
<path d="M260.095 62.4965C260.095 61.907 260.095 61.6803 260.05 61.2874H260.715V62.3227H260.737C260.979 61.7181 261.433 61.1589 262.12 61.1589C262.279 61.1589 262.468 61.1891 262.589 61.2194V61.9146C262.453 61.8693 262.272 61.8541 262.105 61.8541C261.047 61.8541 260.76 63.0406 260.76 64.0154V66.6831H260.095V62.4889V62.4965Z" fill="#1D1D1B"/>
<path d="M268.423 66.2447C268.423 67.7486 267.743 68.9728 265.891 68.9728C265.181 68.9728 264.538 68.7688 264.259 68.6856L264.312 68.0206C264.727 68.2322 265.317 68.3985 265.899 68.3985C267.614 68.3985 267.765 67.1516 267.765 65.6251H267.743C267.38 66.411 266.79 66.683 266.103 66.683C264.38 66.683 263.828 65.1792 263.828 63.9852C263.828 62.3453 264.463 61.1589 266.05 61.1589C266.768 61.1589 267.236 61.2571 267.735 61.8995H267.758V61.2874H268.423V66.2447ZM266.118 66.1163C267.327 66.1163 267.758 64.9752 267.758 63.9852C267.758 62.6854 267.38 61.7332 266.156 61.7332C264.931 61.7332 264.561 62.9423 264.561 63.9852C264.561 65.0281 264.984 66.1163 266.118 66.1163Z" fill="#1D1D1B"/>
<path d="M271.226 59.8516H270.561V58.9598H271.226V59.8516ZM270.561 61.2949H271.226V66.6906H270.561V61.2949Z" fill="#1D1D1B"/>
<path d="M277.06 66.5168C276.592 66.7057 275.995 66.8115 275.496 66.8115C273.705 66.8115 273.04 65.6024 273.04 63.9852C273.04 62.368 273.954 61.1589 275.315 61.1589C276.841 61.1589 277.461 62.3831 277.461 63.8341V64.1741H273.766C273.766 65.3152 274.378 66.2372 275.541 66.2372C276.025 66.2372 276.735 66.0332 277.053 65.8367V66.5168H277.06ZM276.735 63.6074C276.735 62.6627 276.358 61.7332 275.36 61.7332C274.363 61.7332 273.773 62.7156 273.773 63.6074H276.735Z" fill="#1D1D1B"/>
<path d="M279.252 62.5569C279.252 62.1413 279.252 61.7181 279.207 61.2874H279.849V62.2471H279.872C280.091 61.7635 280.499 61.1589 281.617 61.1589C282.947 61.1589 283.461 62.0506 283.461 63.2371V66.6906H282.796V63.4109C282.796 62.3982 282.433 61.7408 281.519 61.7408C280.302 61.7408 279.917 62.8063 279.917 63.7132V66.6982H279.252V62.5721V62.5569Z" fill="#1D1D1B"/>
<path d="M285.252 65.9047C285.653 66.1087 286.144 66.2448 286.658 66.2448C287.292 66.2448 287.852 65.8971 287.852 65.2775C287.852 64.0003 285.26 64.1968 285.26 62.6325C285.26 61.567 286.129 61.1589 287.02 61.1589C287.308 61.1589 287.874 61.2194 288.35 61.4007L288.29 61.9826C287.942 61.8239 287.466 61.7257 287.096 61.7257C286.408 61.7257 285.932 61.9373 285.932 62.625C285.932 63.63 288.592 63.5016 288.592 65.2699C288.592 66.411 287.527 66.804 286.711 66.804C286.189 66.804 285.675 66.7435 285.199 66.547L285.26 65.8896L285.252 65.9047Z" fill="#1D1D1B"/>
<path d="M292.673 65.9047C293.074 66.1087 293.565 66.2448 294.079 66.2448C294.713 66.2448 295.273 65.8971 295.273 65.2775C295.273 64.0003 292.681 64.1968 292.681 62.6325C292.681 61.567 293.55 61.1589 294.441 61.1589C294.729 61.1589 295.295 61.2194 295.771 61.4007L295.711 61.9826C295.363 61.8239 294.887 61.7257 294.517 61.7257C293.829 61.7257 293.353 61.9373 293.353 62.625C293.353 63.63 296.013 63.5016 296.013 65.2699C296.013 66.411 294.948 66.804 294.132 66.804C293.61 66.804 293.096 66.7435 292.62 66.547L292.681 65.8896L292.673 65.9047Z" fill="#1D1D1B"/>
<path d="M301.945 65.421C301.945 65.8367 301.945 66.2599 301.99 66.6906H301.348V65.7309H301.325C301.106 66.2145 300.698 66.8191 299.58 66.8191C298.25 66.8191 297.736 65.9274 297.736 64.7409V61.2874H298.401V64.5671C298.401 65.5797 298.764 66.2372 299.678 66.2372C300.895 66.2372 301.28 65.1717 301.28 64.2648V61.2798H301.945V65.4059V65.421Z" fill="#1D1D1B"/>
<path d="M304.81 59.8516H304.145V58.9598H304.81V59.8516ZM304.145 61.2949H304.81V66.6906H304.145V61.2949Z" fill="#1D1D1B"/>
<path d="M306.608 65.9047C307.009 66.1087 307.5 66.2448 308.014 66.2448C308.648 66.2448 309.208 65.8971 309.208 65.2775C309.208 64.0003 306.616 64.1968 306.616 62.6325C306.616 61.567 307.485 61.1589 308.376 61.1589C308.664 61.1589 309.23 61.2194 309.706 61.4007L309.646 61.9826C309.298 61.8239 308.822 61.7257 308.452 61.7257C307.764 61.7257 307.288 61.9373 307.288 62.625C307.288 63.63 309.948 63.5016 309.948 65.2699C309.948 66.411 308.883 66.804 308.067 66.804C307.545 66.804 307.031 66.7435 306.555 66.547L306.616 65.8896L306.608 65.9047Z" fill="#1D1D1B"/>
<path d="M311.256 65.9047C311.656 66.1087 312.147 66.2448 312.661 66.2448C313.296 66.2448 313.855 65.8971 313.855 65.2775C313.855 64.0003 311.263 64.1968 311.263 62.6325C311.263 61.567 312.132 61.1589 313.024 61.1589C313.311 61.1589 313.878 61.2194 314.354 61.4007L314.293 61.9826C313.946 61.8239 313.47 61.7257 313.099 61.7257C312.412 61.7257 311.936 61.9373 311.936 62.625C311.936 63.63 314.596 63.5016 314.596 65.2699C314.596 66.411 313.53 66.804 312.714 66.804C312.193 66.804 311.679 66.7435 311.203 66.547L311.263 65.8896L311.256 65.9047Z" fill="#1D1D1B"/>
<path d="M319.931 66.5168C319.462 66.7057 318.865 66.8115 318.367 66.8115C316.576 66.8115 315.911 65.6024 315.911 63.9852C315.911 62.368 316.825 61.1589 318.185 61.1589C319.712 61.1589 320.331 62.3831 320.331 63.8341V64.1741H316.636C316.636 65.3152 317.248 66.2372 318.412 66.2372C318.896 66.2372 319.606 66.0332 319.923 65.8367V66.5168H319.931ZM319.606 63.6074C319.606 62.6627 319.228 61.7332 318.231 61.7332C317.233 61.7332 316.644 62.7156 316.644 63.6074H319.606Z" fill="#1D1D1B"/>
<path d="M321.715 65.9047C322.115 66.1087 322.606 66.2448 323.12 66.2448C323.755 66.2448 324.314 65.8971 324.314 65.2775C324.314 64.0003 321.722 64.1968 321.722 62.6325C321.722 61.567 322.591 61.1589 323.483 61.1589C323.77 61.1589 324.337 61.2194 324.813 61.4007L324.752 61.9826C324.405 61.8239 323.929 61.7257 323.558 61.7257C322.871 61.7257 322.395 61.9373 322.395 62.625C322.395 63.63 325.055 63.5016 325.055 65.2699C325.055 66.411 323.989 66.804 323.173 66.804C322.652 66.804 322.138 66.7435 321.662 66.547L321.722 65.8896L321.715 65.9047Z" fill="#1D1D1B"/>
</g>
<defs>
<clipPath id="clip0_1830_21022">
<rect width="320" height="112.327" fill="white" transform="translate(24 32.2384)"/>
</clipPath>
</defs>
</svg>
