<?xml version="1.0" encoding="utf-8"?>
<!-- Generator: Adobe Illustrator 28.0.0, SVG Export Plug-In . SVG Version: 6.00 Build 0)  -->
<svg version="1.1" id="Ebene_1" xmlns="http://www.w3.org/2000/svg" xmlns:xlink="http://www.w3.org/1999/xlink" x="0px" y="0px"
	 viewBox="0 0 237.03 83.37" style="enable-background:new 0 0 237.03 83.37;" xml:space="preserve">
<style type="text/css">
	.st0{fill:#0062A7;}
	.st1{fill:#FFFFFF;}
</style>
<g>
	<rect x="-0.01" class="st0" width="83.36" height="83.36"/>
	<path class="st1" d="M10.8,69.29c3.07-4.27,5.44-8.63,6.43-13.21c0.51-2.27,0.69-4.57,0.58-6.85c-0.07-1.12-0.18-2.26-0.4-3.37
		c-0.11-0.55-0.23-1.11-0.37-1.63c-0.13-0.51-0.33-1.12-0.46-1.44c-0.34-0.86-0.5-1.49-0.68-2.22c-0.17-0.7-0.32-1.42-0.42-2.12
		c-0.2-1.43-0.29-2.85-0.25-4.28c0.09-2.85,0.68-5.69,1.75-8.29c2.14-5.24,6.15-9.37,10.79-11.8c-3.06,4.28-5.42,8.65-6.42,13.22
		c-0.5,2.27-0.69,4.57-0.57,6.84c0.06,1.13,0.18,2.27,0.39,3.37c0.1,0.55,0.22,1.11,0.37,1.64c0.13,0.51,0.33,1.12,0.46,1.44
		c0.33,0.87,0.5,1.49,0.69,2.23c0.17,0.7,0.31,1.41,0.41,2.12c0.2,1.43,0.3,2.85,0.24,4.28c-0.08,2.85-0.67,5.69-1.75,8.29
		C19.44,62.72,15.45,66.86,10.8,69.29z"/>
	<path class="st1" d="M55.59,69.29c3.07-4.27,5.44-8.63,6.43-13.21c0.5-2.27,0.69-4.57,0.57-6.85c-0.07-1.12-0.18-2.26-0.4-3.37
		c-0.1-0.55-0.22-1.1-0.36-1.63c-0.13-0.51-0.33-1.12-0.47-1.44c-0.33-0.86-0.5-1.49-0.68-2.22c-0.18-0.7-0.32-1.42-0.43-2.12
		c-0.2-1.43-0.29-2.85-0.24-4.28c0.09-2.85,0.67-5.69,1.75-8.29c2.14-5.24,6.14-9.37,10.79-11.8c-3.06,4.28-5.43,8.65-6.42,13.22
		c-0.51,2.27-0.7,4.57-0.58,6.84c0.07,1.13,0.18,2.27,0.4,3.37c0.1,0.55,0.22,1.11,0.37,1.64c0.12,0.51,0.32,1.12,0.45,1.44
		c0.34,0.87,0.5,1.49,0.69,2.23c0.18,0.7,0.32,1.41,0.42,2.12c0.2,1.43,0.3,2.85,0.24,4.28c-0.08,2.85-0.68,5.69-1.75,8.29
		C64.23,62.72,60.24,66.86,55.59,69.29z"/>
	<path class="st1" d="M48.19,69.29c-3.82-3.4-6.62-7.82-8.66-12.54C37.5,52,36.35,46.8,36.28,41.54c-0.08-5.26,1-10.57,3.15-15.33
		s5.3-8.98,9.27-12.15c-2.04,4.65-3.81,9.12-4.94,13.68c-1.15,4.54-1.69,9.13-1.64,13.73s0.68,9.23,1.75,13.86
		C44.94,59.96,46.39,64.56,48.19,69.29z"/>
	<g>
		<g>
			<path class="st0" d="M108.07,19.12c-0.7-0.86-1.6-1.28-2.68-1.28c-0.31,0-0.61,0.05-0.89,0.15c-0.3,0.1-0.56,0.26-0.8,0.48
				c-0.24,0.22-0.43,0.5-0.55,0.85c-0.14,0.34-0.22,0.75-0.22,1.23c0,0.81,0.25,1.45,0.75,1.89c0.49,0.45,1.13,0.87,1.93,1.27
				c0.47,0.24,0.96,0.51,1.45,0.82s0.93,0.68,1.35,1.12c0.39,0.44,0.72,0.96,0.98,1.56c0.25,0.6,0.38,1.31,0.38,2.13
				c0,0.95-0.16,1.79-0.46,2.52c-0.3,0.72-0.7,1.34-1.2,1.84s-1.09,0.88-1.75,1.13c-0.68,0.25-1.39,0.38-2.13,0.38
				c-1.07,0-2.06-0.21-2.98-0.63c-0.91-0.42-1.64-0.94-2.19-1.58l1.78-2.4c0.42,0.51,0.92,0.91,1.52,1.2
				c0.6,0.29,1.2,0.44,1.83,0.44c0.68,0,1.26-0.23,1.71-0.71c0.46-0.47,0.69-1.14,0.69-1.99c0-0.84-0.28-1.51-0.83-2
				c-0.54-0.49-1.23-0.95-2.07-1.37c-0.53-0.25-1.02-0.54-1.5-0.84c-0.46-0.31-0.87-0.68-1.22-1.11c-0.36-0.42-0.64-0.93-0.85-1.5
				s-0.31-1.26-0.31-2.06c0-1,0.16-1.87,0.48-2.58c0.31-0.72,0.74-1.32,1.25-1.79c0.52-0.47,1.11-0.82,1.76-1.05
				c0.66-0.22,1.32-0.34,2-0.34c0.98,0,1.86,0.16,2.64,0.48c0.77,0.32,1.42,0.79,1.95,1.41L108.07,19.12z"/>
			<path class="st0" d="M124.69,34.73h-3.32l-1.99-9.54h-0.02l-2,9.54h-3.22l-2.97-13.94h3.17l1.69,10.25h0.06l1.99-10.25h2.73
				l2.06,10.25h0.05l1.72-10.25h3.09L124.69,34.73z"/>
			<path class="st0" d="M133.32,16.75c0,0.54-0.17,1-0.53,1.37c-0.34,0.36-0.77,0.55-1.29,0.55c-0.52,0-0.96-0.19-1.29-0.55
				c-0.34-0.37-0.51-0.82-0.51-1.37c0-0.53,0.16-0.99,0.51-1.37c0.33-0.38,0.77-0.57,1.29-0.57c0.53,0,0.97,0.19,1.3,0.57
				C133.14,15.76,133.32,16.22,133.32,16.75z M129.99,34.73V20.79h3.08v13.94H129.99z"/>
			<path class="st0" d="M142.69,23.93c-0.25-0.35-0.57-0.63-0.95-0.85c-0.38-0.22-0.82-0.33-1.31-0.33c-0.46,0-0.84,0.16-1.15,0.48
				s-0.46,0.74-0.46,1.27c0,0.55,0.16,0.95,0.5,1.19c0.33,0.24,0.84,0.49,1.55,0.75c0.4,0.14,0.79,0.33,1.19,0.54
				c0.38,0.21,0.74,0.48,1.06,0.8c0.32,0.33,0.58,0.73,0.77,1.19c0.19,0.47,0.29,1.02,0.29,1.66c0,0.76-0.13,1.43-0.38,2.01
				c-0.24,0.57-0.57,1.05-0.99,1.44c-0.42,0.38-0.9,0.66-1.44,0.85c-0.54,0.18-1.1,0.27-1.68,0.27c-0.87,0-1.69-0.17-2.44-0.52
				c-0.75-0.34-1.4-0.81-1.93-1.39l1.67-1.96c0.33,0.38,0.71,0.71,1.15,0.98c0.44,0.27,0.95,0.41,1.53,0.41
				c0.52,0,0.91-0.17,1.21-0.52c0.29-0.34,0.43-0.8,0.43-1.37c0-0.65-0.21-1.12-0.63-1.42c-0.43-0.29-1.01-0.56-1.71-0.82
				c-0.37-0.13-0.71-0.28-1.07-0.47c-0.34-0.18-0.67-0.43-0.96-0.74c-0.29-0.31-0.53-0.69-0.7-1.13c-0.17-0.45-0.26-0.99-0.26-1.62
				c0-0.67,0.12-1.28,0.37-1.8c0.24-0.53,0.57-0.98,0.98-1.35c0.4-0.38,0.86-0.66,1.39-0.85s1.07-0.29,1.64-0.29
				c0.83,0,1.59,0.15,2.27,0.45c0.66,0.3,1.24,0.68,1.72,1.15L142.69,23.93z"/>
			<path class="st0" d="M152.67,23.93c-0.25-0.35-0.58-0.63-0.96-0.85c-0.38-0.22-0.81-0.33-1.31-0.33c-0.46,0-0.83,0.16-1.14,0.48
				c-0.32,0.32-0.46,0.74-0.46,1.27c0,0.55,0.16,0.95,0.49,1.19s0.84,0.49,1.55,0.75c0.4,0.14,0.8,0.33,1.19,0.54
				c0.39,0.21,0.74,0.48,1.06,0.8c0.32,0.33,0.58,0.73,0.77,1.19c0.2,0.47,0.29,1.02,0.29,1.66c0,0.76-0.12,1.43-0.37,2.01
				c-0.24,0.57-0.57,1.05-0.99,1.44c-0.42,0.38-0.89,0.66-1.43,0.85c-0.53,0.18-1.1,0.27-1.69,0.27c-0.87,0-1.68-0.17-2.43-0.52
				c-0.76-0.34-1.4-0.81-1.94-1.39l1.67-1.96c0.33,0.38,0.71,0.71,1.15,0.98c0.44,0.27,0.95,0.41,1.52,0.41
				c0.52,0,0.91-0.17,1.21-0.52c0.29-0.34,0.44-0.8,0.44-1.37c0-0.65-0.21-1.12-0.64-1.42c-0.43-0.29-1-0.56-1.7-0.82
				c-0.37-0.13-0.73-0.28-1.07-0.47c-0.34-0.18-0.66-0.43-0.95-0.74s-0.53-0.69-0.7-1.13c-0.16-0.45-0.26-0.99-0.26-1.62
				c0-0.67,0.13-1.28,0.37-1.8c0.25-0.53,0.58-0.98,0.97-1.35c0.4-0.38,0.86-0.66,1.39-0.85s1.08-0.29,1.64-0.29
				c0.84,0,1.6,0.15,2.27,0.45c0.67,0.3,1.25,0.68,1.73,1.15L152.67,23.93z"/>
			<path class="st0" d="M171.59,34.51c-0.79,0.47-1.8,0.71-2.99,0.71c-1.09,0-2.08-0.26-2.96-0.76c-0.88-0.51-1.64-1.22-2.24-2.12
				c-0.61-0.9-1.08-1.97-1.42-3.21s-0.5-2.6-0.5-4.07c0-1.48,0.16-2.84,0.5-4.09s0.82-2.32,1.44-3.23c0.62-0.9,1.37-1.6,2.25-2.1
				s1.86-0.75,2.94-0.75c1.11,0,2.08,0.2,2.92,0.61s1.53,1,2.06,1.77l-1.89,2.29c-0.75-1.08-1.72-1.61-2.9-1.61
				c-0.66,0-1.23,0.19-1.73,0.56c-0.48,0.38-0.9,0.88-1.22,1.52c-0.33,0.64-0.58,1.39-0.75,2.25c-0.15,0.87-0.24,1.79-0.24,2.78
				c0,0.96,0.08,1.88,0.24,2.74c0.17,0.87,0.42,1.62,0.75,2.26c0.32,0.63,0.74,1.14,1.23,1.52c0.51,0.37,1.09,0.56,1.77,0.56
				c0.64,0,1.18-0.17,1.65-0.49c0.46-0.32,0.85-0.72,1.16-1.2l1.89,2.21C173.04,33.41,172.38,34.03,171.59,34.51z"/>
			<path class="st0" d="M185.33,27.79c0,1.1-0.12,2.09-0.36,3.01c-0.25,0.91-0.61,1.69-1.07,2.33s-1.02,1.15-1.68,1.51
				c-0.65,0.37-1.4,0.55-2.24,0.55c-0.84,0-1.59-0.18-2.25-0.55s-1.22-0.87-1.69-1.51c-0.46-0.65-0.82-1.42-1.07-2.33
				c-0.24-0.92-0.36-1.91-0.36-3.01c0-1.11,0.12-2.12,0.36-3.05c0.25-0.92,0.6-1.71,1.05-2.36c0.47-0.66,1.03-1.16,1.69-1.52
				c0.67-0.36,1.42-0.53,2.26-0.53c0.83,0,1.58,0.18,2.24,0.53c0.66,0.36,1.22,0.86,1.68,1.52c0.47,0.65,0.83,1.44,1.07,2.36
				C185.21,25.66,185.33,26.67,185.33,27.79z M182.25,27.76c0-0.67-0.05-1.3-0.14-1.87c-0.09-0.57-0.23-1.08-0.42-1.5
				c-0.19-0.43-0.43-0.77-0.72-1.02c-0.28-0.24-0.62-0.37-1.02-0.37c-0.4,0-0.74,0.12-1.03,0.37c-0.28,0.25-0.51,0.59-0.7,1.02
				c-0.17,0.42-0.32,0.93-0.4,1.5c-0.1,0.57-0.14,1.2-0.14,1.87c0,0.66,0.04,1.28,0.14,1.86c0.08,0.59,0.22,1.08,0.4,1.5
				c0.19,0.42,0.42,0.75,0.7,1c0.29,0.24,0.62,0.37,1.03,0.37c0.4,0,0.75-0.12,1.04-0.37s0.53-0.58,0.71-1
				c0.17-0.42,0.31-0.92,0.4-1.5C182.21,29.03,182.25,28.41,182.25,27.76z"/>
			<path class="st0" d="M188.22,34.73V14.07h3.08v20.66H188.22z"/>
			<path class="st0" d="M195.04,34.73V14.07h3.08v20.66H195.04z"/>
			<path class="st0" d="M204.09,28.55c0,0.54,0.06,1.06,0.17,1.54c0.11,0.48,0.27,0.9,0.48,1.26c0.21,0.36,0.46,0.64,0.75,0.85
				c0.31,0.21,0.66,0.32,1.06,0.32c0.57,0,1.02-0.19,1.35-0.55c0.34-0.36,0.61-0.78,0.81-1.26l2.26,1.31
				c-0.39,0.96-0.97,1.73-1.7,2.31c-0.74,0.58-1.67,0.86-2.82,0.86c-1.62,0-2.93-0.64-3.91-1.91c-0.98-1.27-1.47-3.11-1.47-5.49
				c0-1.11,0.12-2.12,0.38-3.05c0.25-0.92,0.62-1.71,1.09-2.36c0.48-0.66,1.03-1.16,1.68-1.52s1.37-0.53,2.17-0.53
				c0.9,0,1.65,0.18,2.29,0.55c0.63,0.36,1.13,0.86,1.52,1.49s0.68,1.37,0.86,2.23c0.18,0.86,0.27,1.79,0.27,2.79v1.18h-7.24V28.55z
				 M208.38,26.31c0-1.04-0.16-1.88-0.49-2.53c-0.33-0.64-0.84-0.97-1.53-0.97c-0.41,0-0.75,0.12-1.03,0.35
				c-0.28,0.24-0.52,0.54-0.68,0.89c-0.17,0.36-0.31,0.74-0.4,1.15s-0.14,0.78-0.14,1.1h4.27V26.31z"/>
			<path class="st0" d="M223.9,34.35c0,1.04-0.1,1.98-0.3,2.83c-0.2,0.85-0.53,1.57-0.98,2.18c-0.46,0.61-1.04,1.08-1.76,1.42
				c-0.7,0.34-1.57,0.51-2.59,0.51c-0.97,0-1.89-0.19-2.76-0.56c-0.88-0.37-1.6-0.87-2.17-1.49l1.67-2.21
				c0.39,0.44,0.87,0.8,1.4,1.1c0.54,0.29,1.12,0.43,1.76,0.43c0.51,0,0.94-0.1,1.29-0.31c0.35-0.21,0.62-0.49,0.83-0.85
				c0.22-0.35,0.36-0.77,0.46-1.25c0.08-0.48,0.14-1.01,0.14-1.57v-1.7h-0.07c-0.2,0.62-0.57,1.14-1.1,1.57
				c-0.54,0.43-1.19,0.64-1.95,0.64c-0.74,0-1.4-0.18-1.96-0.55c-0.57-0.36-1.03-0.87-1.41-1.53c-0.38-0.65-0.66-1.43-0.84-2.32
				c-0.2-0.89-0.29-1.87-0.29-2.92c0-1.07,0.1-2.07,0.3-2.98s0.49-1.7,0.87-2.35c0.38-0.66,0.85-1.17,1.41-1.54
				c0.55-0.37,1.19-0.56,1.92-0.56c0.9,0,1.58,0.23,2.05,0.7c0.47,0.47,0.82,1.04,1.04,1.73h0.09V20.8h2.95L223.9,34.35L223.9,34.35
				z M220.98,27.73c0-0.66-0.05-1.28-0.16-1.86c-0.09-0.58-0.25-1.08-0.44-1.5c-0.18-0.42-0.43-0.75-0.72-1
				c-0.29-0.24-0.63-0.37-1.02-0.37c-0.4,0-0.75,0.12-1.04,0.37s-0.53,0.58-0.71,1c-0.18,0.42-0.31,0.92-0.41,1.5
				c-0.09,0.58-0.14,1.2-0.14,1.86s0.05,1.27,0.14,1.86c0.1,0.58,0.22,1.08,0.41,1.52c0.18,0.43,0.42,0.77,0.71,1.01
				c0.29,0.24,0.64,0.37,1.04,0.37c0.38,0,0.73-0.12,1.02-0.37c0.29-0.25,0.54-0.58,0.72-1.01c0.19-0.43,0.34-0.93,0.44-1.52
				C220.93,29.01,220.98,28.39,220.98,27.73z"/>
			<path class="st0" d="M229.79,28.55c0,0.54,0.05,1.06,0.17,1.54c0.1,0.48,0.26,0.9,0.47,1.26s0.47,0.64,0.76,0.85
				c0.3,0.21,0.66,0.32,1.06,0.32c0.56,0,1.02-0.19,1.35-0.55c0.34-0.36,0.61-0.78,0.81-1.26l2.27,1.31
				c-0.39,0.96-0.96,1.73-1.7,2.31c-0.74,0.58-1.68,0.86-2.82,0.86c-1.62,0-2.93-0.64-3.91-1.91c-0.99-1.27-1.48-3.11-1.48-5.49
				c0-1.11,0.13-2.12,0.38-3.05c0.25-0.92,0.62-1.71,1.09-2.36c0.46-0.66,1.03-1.16,1.67-1.52c0.65-0.36,1.37-0.53,2.17-0.53
				c0.89,0,1.66,0.18,2.29,0.55c0.62,0.36,1.13,0.86,1.52,1.49s0.68,1.37,0.87,2.23c0.18,0.86,0.27,1.79,0.27,2.79v1.18h-7.24V28.55
				z M234.09,26.31c0-1.04-0.17-1.88-0.49-2.53c-0.33-0.64-0.83-0.97-1.53-0.97c-0.4,0-0.75,0.12-1.02,0.35
				c-0.29,0.24-0.51,0.54-0.69,0.89c-0.17,0.36-0.3,0.74-0.39,1.15c-0.1,0.41-0.14,0.78-0.14,1.1h4.26V26.31z"/>
			<path class="st0" d="M110.29,60.58c0,1.09-0.13,2.1-0.38,3c-0.24,0.91-0.6,1.7-1.07,2.34c-0.46,0.65-1.02,1.15-1.68,1.51
				c-0.65,0.38-1.4,0.56-2.24,0.56s-1.59-0.19-2.25-0.56c-0.66-0.36-1.22-0.86-1.68-1.51c-0.46-0.64-0.82-1.43-1.07-2.34
				c-0.25-0.9-0.38-1.91-0.38-3c0-1.11,0.13-2.12,0.38-3.05c0.24-0.92,0.6-1.71,1.05-2.36c0.46-0.66,1.01-1.16,1.68-1.52
				s1.42-0.54,2.26-0.54c0.84,0,1.6,0.18,2.24,0.54c0.66,0.36,1.22,0.86,1.68,1.52c0.47,0.65,0.83,1.44,1.07,2.36
				C110.16,58.46,110.29,59.46,110.29,60.58z M107.19,60.56c0-0.69-0.04-1.3-0.13-1.88s-0.23-1.08-0.42-1.51
				c-0.19-0.43-0.43-0.77-0.72-1.01c-0.28-0.24-0.62-0.37-1.02-0.37c-0.4,0-0.75,0.12-1.03,0.37c-0.28,0.24-0.52,0.58-0.69,1.01
				c-0.18,0.43-0.32,0.92-0.41,1.51c-0.1,0.57-0.14,1.19-0.14,1.88c0,0.65,0.04,1.26,0.14,1.84c0.09,0.59,0.23,1.09,0.41,1.51
				c0.18,0.42,0.41,0.75,0.69,1c0.28,0.24,0.63,0.37,1.03,0.37s0.75-0.13,1.04-0.37c0.29-0.24,0.53-0.58,0.71-1
				c0.19-0.42,0.32-0.92,0.41-1.51C107.15,61.81,107.19,61.21,107.19,60.56z"/>
			<path class="st0" d="M118.86,49.02c-0.24-0.09-0.51-0.14-0.82-0.14c-0.36,0-0.63,0.08-0.85,0.23c-0.22,0.15-0.38,0.35-0.52,0.61
				c-0.14,0.26-0.22,0.55-0.27,0.87c-0.06,0.33-0.08,0.67-0.08,1.02v1.96h2.24v2.46h-2.21V67.5h-3.01V56.04h-1.75v-2.46h1.75v-2.03
				c0-0.73,0.08-1.41,0.23-2.06c0.15-0.64,0.4-1.21,0.74-1.68c0.33-0.47,0.77-0.85,1.32-1.12c0.54-0.28,1.21-0.41,1.97-0.41
				c0.22,0,0.47,0.02,0.74,0.06c0.28,0.04,0.52,0.09,0.71,0.16L118.86,49.02z"/>
			<path class="st0" d="M134.2,51.91c-0.71-0.85-1.6-1.28-2.68-1.28c-0.32,0-0.61,0.05-0.9,0.15c-0.29,0.1-0.56,0.26-0.79,0.48
				c-0.24,0.21-0.44,0.5-0.56,0.84c-0.14,0.35-0.21,0.76-0.21,1.23c0,0.82,0.25,1.45,0.74,1.89c0.5,0.45,1.14,0.86,1.93,1.28
				c0.48,0.23,0.97,0.51,1.45,0.82c0.49,0.3,0.94,0.68,1.34,1.12s0.73,0.96,0.98,1.56c0.25,0.6,0.39,1.3,0.39,2.13
				c0,0.95-0.16,1.79-0.45,2.5c-0.31,0.74-0.71,1.35-1.21,1.84c-0.5,0.52-1.09,0.89-1.75,1.14c-0.68,0.25-1.38,0.38-2.14,0.38
				c-1.07,0-2.06-0.21-2.98-0.63c-0.91-0.41-1.64-0.94-2.19-1.58l1.79-2.4c0.41,0.51,0.92,0.92,1.51,1.2
				c0.59,0.29,1.2,0.44,1.83,0.44c0.68,0,1.26-0.23,1.72-0.71c0.46-0.48,0.69-1.13,0.69-1.99c0-0.85-0.28-1.51-0.83-1.99
				c-0.54-0.5-1.24-0.95-2.08-1.37c-0.53-0.25-1.02-0.54-1.49-0.85c-0.47-0.31-0.87-0.69-1.23-1.11c-0.36-0.43-0.64-0.93-0.85-1.5
				s-0.31-1.27-0.31-2.07c0-1,0.16-1.86,0.47-2.59c0.31-0.71,0.74-1.31,1.26-1.78c0.52-0.47,1.11-0.83,1.76-1.05
				c0.66-0.23,1.32-0.35,2-0.35c0.98,0,1.86,0.16,2.64,0.48c0.76,0.32,1.42,0.79,1.95,1.41L134.2,51.91z"/>
			<path class="st0" d="M145.75,67.52V65.3h-0.06c-0.25,0.75-0.67,1.39-1.27,1.9c-0.59,0.52-1.32,0.78-2.2,0.78
				c-0.76,0-1.38-0.17-1.83-0.48c-0.46-0.32-0.83-0.75-1.08-1.28s-0.44-1.13-0.52-1.81c-0.09-0.68-0.14-1.39-0.14-2.09v-8.74h3.09
				v8.74c0,0.37,0.01,0.71,0.05,1.06c0.03,0.34,0.11,0.66,0.23,0.95c0.12,0.27,0.29,0.51,0.52,0.68c0.22,0.17,0.52,0.26,0.89,0.26
				c0.68,0,1.24-0.35,1.66-1.03c0.41-0.69,0.61-1.55,0.61-2.6v-8.06h3.09v13.93L145.75,67.52L145.75,67.52z"/>
			<path class="st0" d="M156.82,53.91c0.51-0.53,1.1-0.8,1.8-0.8c0.08,0,0.16,0,0.23,0s0.14,0.02,0.23,0.06l-0.16,3.17
				c-0.2-0.06-0.43-0.07-0.66-0.07c-0.4,0-0.75,0.11-1.06,0.36c-0.31,0.24-0.58,0.57-0.79,0.97c-0.22,0.39-0.38,0.86-0.49,1.37
				s-0.16,1.03-0.16,1.56v6.99h-3.14V53.58h3.04v2.68h0.05C155.94,55.22,156.3,54.44,156.82,53.91z"/>
			<path class="st0" d="M170.55,67.14c0,1.03-0.09,1.98-0.3,2.81c-0.2,0.86-0.53,1.59-0.98,2.2c-0.46,0.61-1.04,1.07-1.75,1.42
				c-0.71,0.34-1.58,0.5-2.59,0.5c-0.97,0-1.89-0.18-2.76-0.55c-0.88-0.38-1.59-0.88-2.17-1.5l1.68-2.21
				c0.4,0.44,0.87,0.81,1.41,1.09c0.53,0.3,1.12,0.43,1.75,0.43c0.5,0,0.94-0.09,1.29-0.3c0.35-0.22,0.63-0.5,0.84-0.85
				c0.21-0.35,0.36-0.78,0.46-1.26c0.08-0.49,0.13-1.01,0.13-1.57v-1.69h-0.05c-0.21,0.62-0.57,1.14-1.11,1.56
				c-0.54,0.44-1.19,0.65-1.95,0.65c-0.75,0-1.4-0.18-1.97-0.55c-0.57-0.36-1.03-0.87-1.41-1.53c-0.37-0.66-0.65-1.43-0.84-2.31
				c-0.2-0.91-0.29-1.88-0.29-2.92c0-1.08,0.1-2.09,0.31-2.99c0.19-0.91,0.48-1.7,0.87-2.35c0.38-0.66,0.85-1.17,1.41-1.55
				c0.55-0.37,1.19-0.56,1.93-0.56c0.89,0,1.58,0.23,2.05,0.7c0.47,0.46,0.82,1.04,1.04,1.73h0.08v-1.96h2.95v13.56H170.55z
				 M167.63,60.53c0-0.66-0.05-1.27-0.15-1.85c-0.1-0.6-0.25-1.09-0.43-1.52c-0.19-0.41-0.44-0.75-0.73-0.99s-0.63-0.37-1.01-0.37
				c-0.4,0-0.75,0.12-1.04,0.37c-0.29,0.24-0.53,0.58-0.71,0.99c-0.18,0.42-0.31,0.92-0.4,1.52c-0.09,0.58-0.14,1.2-0.14,1.85
				c0,0.66,0.05,1.26,0.14,1.85c0.09,0.58,0.23,1.08,0.4,1.52c0.18,0.42,0.42,0.76,0.71,1.01c0.29,0.24,0.65,0.37,1.04,0.37
				c0.38,0,0.72-0.13,1.01-0.37c0.29-0.24,0.53-0.59,0.73-1.01c0.18-0.44,0.33-0.94,0.43-1.52
				C167.58,61.79,167.63,61.19,167.63,60.53z"/>
			<path class="st0" d="M176.46,61.34c0,0.55,0.05,1.06,0.16,1.53c0.12,0.49,0.27,0.91,0.48,1.27c0.21,0.35,0.47,0.64,0.76,0.85
				c0.3,0.21,0.65,0.31,1.05,0.31c0.57,0,1.02-0.18,1.35-0.55c0.34-0.36,0.62-0.78,0.81-1.25l2.27,1.31
				c-0.41,0.96-0.97,1.72-1.71,2.31c-0.74,0.57-1.67,0.87-2.83,0.87c-1.61,0-2.92-0.65-3.9-1.93c-0.98-1.27-1.48-3.1-1.48-5.48
				c0-1.11,0.13-2.12,0.39-3.05c0.25-0.92,0.62-1.71,1.09-2.36c0.47-0.66,1.03-1.16,1.68-1.52s1.37-0.54,2.17-0.54
				c0.9,0,1.66,0.18,2.29,0.55c0.62,0.36,1.13,0.86,1.52,1.49s0.68,1.37,0.87,2.22c0.18,0.86,0.27,1.79,0.27,2.79v1.18
				C183.7,61.34,176.46,61.34,176.46,61.34z M180.76,59.09c0-1.04-0.17-1.88-0.5-2.52c-0.32-0.64-0.84-0.97-1.53-0.97
				c-0.4,0-0.75,0.13-1.02,0.36c-0.29,0.23-0.52,0.53-0.68,0.88c-0.18,0.36-0.31,0.74-0.41,1.15c-0.09,0.41-0.13,0.77-0.13,1.1
				H180.76z"/>
			<path class="st0" d="M196.41,60.58c0,1.09-0.13,2.1-0.37,3c-0.25,0.91-0.6,1.7-1.07,2.34c-0.46,0.65-1.02,1.15-1.68,1.51
				c-0.66,0.38-1.41,0.56-2.25,0.56s-1.59-0.19-2.24-0.56c-0.67-0.36-1.22-0.86-1.69-1.51c-0.46-0.64-0.82-1.43-1.06-2.34
				c-0.25-0.9-0.38-1.91-0.38-3c0-1.11,0.12-2.12,0.38-3.05c0.24-0.92,0.59-1.71,1.05-2.36c0.46-0.66,1.02-1.16,1.69-1.52
				c0.66-0.36,1.41-0.54,2.25-0.54s1.6,0.18,2.25,0.54c0.66,0.36,1.22,0.86,1.68,1.52c0.46,0.65,0.82,1.44,1.07,2.36
				C196.28,58.46,196.41,59.46,196.41,60.58z M193.32,60.56c0-0.69-0.04-1.3-0.14-1.88c-0.09-0.58-0.23-1.08-0.42-1.51
				c-0.19-0.43-0.43-0.77-0.71-1.01c-0.28-0.24-0.62-0.37-1.03-0.37c-0.39,0-0.74,0.12-1.02,0.37c-0.28,0.24-0.52,0.58-0.69,1.01
				c-0.18,0.43-0.32,0.92-0.41,1.51c-0.09,0.57-0.13,1.19-0.13,1.88c0,0.65,0.04,1.26,0.13,1.84c0.09,0.59,0.22,1.09,0.41,1.51
				c0.18,0.42,0.41,0.75,0.69,1c0.29,0.24,0.63,0.37,1.02,0.37c0.41,0,0.75-0.13,1.04-0.37c0.29-0.24,0.53-0.58,0.72-1
				c0.17-0.42,0.31-0.92,0.4-1.51C193.28,61.81,193.32,61.21,193.32,60.56z"/>
			<path class="st0" d="M202.37,53.58v2.21h0.05c0.26-0.75,0.68-1.38,1.27-1.9c0.6-0.52,1.33-0.78,2.2-0.78
				c0.77,0,1.38,0.16,1.84,0.48c0.47,0.32,0.82,0.75,1.08,1.28s0.43,1.13,0.52,1.81c0.09,0.69,0.14,1.38,0.14,2.09v8.75h-3.09v-8.75
				c0-0.34-0.02-0.69-0.06-1.05c-0.03-0.35-0.11-0.68-0.23-0.96c-0.12-0.3-0.29-0.52-0.52-0.71c-0.24-0.16-0.52-0.25-0.89-0.25
				c-0.7,0-1.25,0.34-1.66,1.04c-0.4,0.7-0.61,1.57-0.61,2.62v8.06h-3.09V53.58H202.37z"/>
			<path class="st0" d="M219,56.72c-0.25-0.35-0.57-0.63-0.96-0.85c-0.38-0.22-0.81-0.33-1.3-0.33c-0.46,0-0.85,0.16-1.15,0.48
				c-0.31,0.31-0.46,0.75-0.46,1.27c0,0.55,0.16,0.94,0.49,1.19s0.84,0.51,1.56,0.76c0.4,0.14,0.8,0.32,1.19,0.53
				s0.74,0.47,1.06,0.8c0.32,0.32,0.57,0.72,0.77,1.19c0.18,0.46,0.29,1.01,0.29,1.65c0,0.77-0.13,1.44-0.38,2.01
				c-0.24,0.57-0.58,1.05-0.99,1.44c-0.43,0.38-0.9,0.67-1.44,0.84c-0.54,0.19-1.1,0.29-1.69,0.29c-0.87,0-1.68-0.19-2.43-0.53
				c-0.76-0.34-1.4-0.81-1.93-1.4l1.68-1.96c0.32,0.38,0.71,0.71,1.14,0.98c0.44,0.28,0.95,0.42,1.53,0.42
				c0.51,0,0.91-0.17,1.2-0.52c0.29-0.36,0.44-0.8,0.44-1.37c0-0.66-0.21-1.14-0.64-1.43s-0.99-0.56-1.71-0.81
				c-0.36-0.14-0.72-0.29-1.06-0.47c-0.35-0.18-0.67-0.43-0.96-0.74c-0.29-0.31-0.53-0.69-0.7-1.13c-0.17-0.45-0.25-0.98-0.25-1.63
				c0-0.67,0.12-1.27,0.36-1.8c0.25-0.53,0.58-0.98,0.98-1.35c0.4-0.38,0.87-0.66,1.4-0.85c0.53-0.18,1.07-0.29,1.64-0.29
				c0.83,0,1.59,0.15,2.26,0.46c0.67,0.29,1.24,0.68,1.72,1.15L219,56.72z"/>
		</g>
	</g>
</g>
</svg>
